<svg t="1692987131123" class="icon" viewBox="0 0 1024 1024" version="1.1" xmlns="http://www.w3.org/2000/svg" p-id="44037" width="32" height="32"><path d="M363.052 321.515v-148.2c0-1-0.2-1.9-0.2-2.9v-6.7h-0.5c-3.8-32.7-26.1-58-53.3-58h-190.9c-27.3 0-49.6 25.2-53.3 58h-0.8v220h0.2v60.4c0 1.1-0.2 2.1-0.2 3.1v417.1h0.8c3.8 32.7 26.1 58 53.3 58h190.8c27.3 0 49.6-25.2 53.3-58h0.5v-5h0.2v-479.7h-0.2v-55.2c0.1-1 0.3-1.9 0.3-2.9z" fill="#4DDAA6" p-id="44038"></path><path d="M132.552 754.415c0 44.7 36.3 81 81 81s81-36.3 81-81-36.3-81-81-81c-44.7 0.1-81 36.3-81 81zM139.452 204.915h148.3v376.7h-148.3v-376.7z" fill="#FFFFFF" opacity=".25" p-id="44039"></path><path d="M175.752 754.415c0 20.8 16.9 37.7 37.7 37.7s37.7-16.9 37.7-37.7-16.9-37.7-37.7-37.7c-20.8 0-37.7 16.9-37.7 37.7z" fill="#56D0A6" p-id="44040"></path><path d="M662.152 321.515v-148.2c0-1-0.2-1.9-0.2-2.9v-6.7h-0.5c-3.8-32.7-26.1-58-53.3-58h-190.9c-27.3 0-49.6 25.2-53.3 58h-0.8v220h0.2v60.4c0 1.1-0.2 2.1-0.2 3.1v417.1h0.8c3.8 32.7 26.1 58 53.3 58h190.8c27.3 0 49.6-25.2 53.3-58h0.5v-5h0.2v-479.7h-0.2v-55.2c0.1-1 0.3-1.9 0.3-2.9z" fill="#97E7BD" p-id="44041"></path><path d="M431.652 754.415c0 44.7 36.3 81 81 81s81-36.3 81-81-36.3-81-81-81c-44.7 0.1-81 36.3-81 81zM438.552 204.915h148.3v376.7h-148.3v-376.7z" fill="#FFFFFF" opacity=".25" p-id="44042"></path><path d="M474.852 754.415c0 20.8 16.9 37.7 37.7 37.7 20.8 0 37.7-16.9 37.7-37.7 0-20.8-16.9-37.7-37.7-37.7-20.8 0-37.7 16.9-37.7 37.7z" fill="#97E7BD" p-id="44043"></path><path d="M960.752 321.515v-148.2c0-1-0.2-1.9-0.2-2.9v-6.7h-0.5c-3.8-32.7-26.1-58-53.3-58h-191c-27.3 0-49.6 25.2-53.3 58h-0.8v220h0.2v60.4c0 1.1-0.2 2.1-0.2 3.1v417.1h0.8c3.8 32.7 26.1 58 53.3 58h190.9c27.3 0 49.6-25.2 53.3-58h0.5v-5h0.2v-479.7h-0.2v-55.2c0.1-1 0.3-1.9 0.3-2.9z" fill="#4DDAA6" p-id="44044"></path><path d="M730.252 754.415c0 44.7 36.3 81 81 81s81-36.3 81-81-36.3-81-81-81c-44.8 0.1-81 36.3-81 81zM737.052 204.915h148.3v376.7h-148.3v-376.7z" fill="#FFFFFF" opacity=".25" p-id="44045"></path><path d="M773.452 754.415c0 20.8 16.9 37.7 37.7 37.7s37.7-16.9 37.7-37.7-16.9-37.7-37.7-37.7c-20.8 0-37.7 16.9-37.7 37.7z" fill="#56D0A6" p-id="44046"></path></svg>
