<svg t="1692986937130" class="icon" viewBox="0 0 1024 1024" version="1.1" xmlns="http://www.w3.org/2000/svg" p-id="33048" width="144" height="144"><path d="M325.3 928.1H149.9c-27.5 0-50-22.5-50-50V148c0-27.5 22.5-50 50-50h175.4c27.5 0 50 22.5 50 50v730.1c0 27.5-22.5 50-50 50z" fill="#079FDB" p-id="33049"></path><path d="M285.3 928.1H149.9c-27.5 0-50-22.5-50-50V148c0-27.5 22.5-50 50-50h135.4c27.5 0 50 22.5 50 50v730.1c0 27.5-22.5 50-50 50z" fill="#00B5FC" p-id="33050"></path><path d="M225.5 800c-36.9 0-67-30.1-67-67s30.1-67 67-67 67 30.1 67 67-30 67-67 67z" fill="#694B4B" p-id="33051"></path><path d="M225.5 672c33.6 0 61 27.4 61 61s-27.4 61-61 61-61-27.4-61-61 27.4-61 61-61m0-12c-40.3 0-73 32.7-73 73s32.7 73 73 73 73-32.7 73-73-32.7-73-73-73z" fill="#FFFFFF" p-id="33052"></path><path d="M151.7 143.9h147.6v441H151.7z" fill="#FFFFFF" p-id="33053"></path><path d="M600.7 928.2H425.3c-27.5 0-50-22.5-50-50V148.1c0-27.5 22.5-50 50-50h175.4c27.5 0 50 22.5 50 50v730.1c0 27.5-22.5 50-50 50z" fill="#9ED756" p-id="33054"></path><path d="M560.7 928.2H425.3c-27.5 0-50-22.5-50-50V148.1c0-27.5 22.5-50 50-50h135.4c27.5 0 50 22.5 50 50v730.1c0 27.5-22.5 50-50 50z" fill="#B5E66E" p-id="33055"></path><path d="M500.9 800.1c-36.9 0-67-30.1-67-67s30.1-67 67-67 67 30.1 67 67-30 67-67 67z" fill="#694B4B" p-id="33056"></path><path d="M500.9 672.1c33.6 0 61 27.4 61 61s-27.4 61-61 61-61-27.4-61-61 27.4-61 61-61m0-12c-40.3 0-73 32.7-73 73s32.7 73 73 73 73-32.7 73-73-32.7-73-73-73z" fill="#FFFFFF" p-id="33057"></path><path d="M427.1 144h147.6v441H427.1z" fill="#FFFFFF" p-id="33058"></path><path d="M876.1 928.1H700.7c-27.5 0-50-22.5-50-50V148c0-27.5 22.5-50 50-50h175.4c27.5 0 50 22.5 50 50v730.1c0 27.5-22.5 50-50 50z" fill="#FFDD60" p-id="33059"></path><path d="M836.1 928.1H700.7c-27.5 0-50-22.5-50-50V148c0-27.5 22.5-50 50-50h135.4c27.5 0 50 22.5 50 50v730.1c0 27.5-22.5 50-50 50z" fill="#FFF082" p-id="33060"></path><path d="M776.3 800c-36.9 0-67-30.1-67-67s30.1-67 67-67 67 30.1 67 67-30 67-67 67z" fill="#694B4B" p-id="33061"></path><path d="M776.3 672c33.6 0 61 27.4 61 61s-27.4 61-61 61-61-27.4-61-61 27.4-61 61-61m0-12c-40.3 0-73 32.7-73 73s32.7 73 73 73 73-32.7 73-73-32.7-73-73-73z" fill="#FFFFFF" p-id="33062"></path><path d="M702.5 143.9h147.6v441H702.5z" fill="#FFFFFF" p-id="33063"></path></svg>
